<?xml version="1.0" standalone="no"?>
<!DOCTYPE svg PUBLIC "-//W3C//DTD SVG 20010904//EN"
 "http://www.w3.org/TR/2001/REC-SVG-20010904/DTD/svg10.dtd">
<svg version="1.0" xmlns="http://www.w3.org/2000/svg"
 width="1667.000000pt" height="1667.000000pt" viewBox="0 0 1667.000000 1667.000000"
 preserveAspectRatio="xMidYMid meet">
<metadata>
Created by potrace 1.14, written by Peter Selinger 2001-2017
</metadata>
<g transform="translate(0.000000,1667.000000) scale(0.100000,-0.100000)"
fill="#000000" stroke="none">
<path d="M4598 12325 c-2 -1 -47 -6 -101 -9 -54 -4 -103 -9 -110 -11 -7 -2
-30 -6 -52 -9 -22 -3 -50 -7 -61 -10 -12 -2 -39 -7 -60 -10 -61 -10 -252 -62
-350 -96 -317 -111 -642 -301 -904 -529 -83 -71 -209 -198 -261 -261 -18 -22
-36 -40 -39 -40 -3 0 -5 183 -5 407 l0 408 -1325 0 -1325 0 2 -450 c1 -247 4
-691 8 -985 4 -294 8 -1045 10 -1668 2 -1092 3 -1133 21 -1153 11 -12 28 -25
39 -31 11 -5 61 -35 110 -68 78 -51 171 -106 320 -190 106 -60 387 -195 535
-258 296 -126 693 -257 890 -296 197 -38 295 -56 345 -61 33 -4 71 -9 85 -11
14 -2 73 -7 131 -10 l107 -7 0 1059 c0 583 3 1079 6 1104 6 45 19 121 21 130
1 3 5 19 9 35 56 227 177 455 327 613 249 263 576 399 959 400 327 0 585 -130
785 -397 90 -119 180 -307 201 -421 3 -14 9 -41 14 -60 5 -19 12 -57 15 -85 4
-27 9 -68 12 -90 3 -22 6 -468 7 -992 0 -523 4 -954 7 -957 3 -3 104 -8 225
-11 120 -2 228 -6 239 -9 11 -2 49 -7 85 -11 84 -8 305 -49 406 -75 274 -70
680 -228 939 -365 144 -77 191 -103 230 -125 22 -12 60 -34 85 -48 66 -37 345
-209 419 -258 36 -24 67 -42 69 -39 2 2 5 606 7 1342 1 736 5 1361 9 1388 5
48 8 70 22 160 12 82 56 248 80 302 8 17 14 35 14 41 0 15 74 155 116 218 76
114 230 247 362 313 99 50 206 82 378 115 94 18 329 25 441 13 210 -22 424
-121 572 -265 218 -212 345 -519 368 -892 4 -52 7 -994 7 -2092 1 -1099 1
-1998 1 -1998 0 0 32 -12 70 -26 206 -76 510 -180 585 -200 8 -2 92 -26 185
-54 172 -51 648 -173 719 -184 21 -4 41 -8 45 -10 5 -3 218 -49 291 -62 14 -3
68 -13 120 -24 52 -10 109 -21 125 -24 17 -2 66 -11 110 -20 83 -15 122 -22
190 -32 22 -3 58 -10 80 -15 22 -5 50 -9 62 -9 l21 0 0 3043 c0 1774 -4 3067
-9 3102 -86 567 -529 1112 -1154 1420 -193 95 -216 105 -376 159 -253 85 -538
147 -789 171 -30 3 -80 8 -110 11 -125 13 -536 20 -586 10 -12 -2 -60 -7 -107
-11 -47 -3 -94 -7 -104 -9 -10 -2 -40 -7 -68 -10 -27 -4 -61 -9 -75 -11 -14
-3 -36 -7 -50 -10 -452 -85 -903 -285 -1250 -554 -47 -36 -98 -77 -115 -91
-40 -35 -252 -246 -296 -295 -55 -62 -183 -234 -213 -287 -16 -27 -29 -48 -31
-48 -1 0 -22 30 -46 68 -206 319 -490 634 -701 778 -24 16 -49 35 -56 41 -7 7
-34 25 -60 40 -26 14 -54 32 -62 38 -58 46 -305 161 -470 219 -101 36 -333
100 -395 109 -16 3 -64 12 -105 20 -41 9 -102 19 -135 23 -33 3 -67 8 -76 9
-9 2 -52 6 -95 10 -43 4 -88 9 -99 12 -22 4 -412 12 -417 8z"/>
<path d="M15309 6876 c-2 -2 -33 -7 -69 -11 -36 -4 -68 -9 -73 -12 -4 -2 -20
-6 -35 -9 -44 -8 -152 -45 -222 -76 -365 -166 -633 -506 -711 -903 -21 -107
-18 -421 6 -487 2 -7 6 -24 9 -38 8 -51 58 -187 97 -264 119 -237 318 -436
557 -556 239 -120 532 -161 790 -110 81 16 86 17 166 44 234 79 451 238 603
441 44 59 138 229 164 300 23 59 51 169 63 245 14 83 15 337 2 390 -3 14 -8
36 -11 50 -12 63 -16 77 -36 139 -78 240 -236 459 -439 612 -64 48 -237 149
-262 153 -7 1 -17 4 -23 7 -22 13 -144 49 -220 65 -73 15 -345 30 -356 20z"/>
</g>
</svg>
